HIERARCHY
ROOT Hips
{
  OFFSET 59.0837 95.6022 0.517306
  CHANNELS 6 Xposition Yposition Zposition Zrotation Xrotation Yrotation
  JOINT spine
  {
    OFFSET 0 7.96568 0.458067
    CHANNELS 3 Zrotation Xrotation Yrotation
    JOINT spine1
    {
      OFFSET 0 10.2431 0
      CHANNELS 3 Zrotation Xrotation Yrotation
      JOINT spine2
      {
        OFFSET 0 9.81475 0
        CHANNELS 3 Zrotation Xrotation Yrotation
        JOINT Neck
        {
          OFFSET 0 25.1986 1.20138
          CHANNELS 3 Zrotation Xrotation Yrotation
          JOINT Head
          {
            OFFSET 0 7.61315 0
            CHANNELS 3 Zrotation Xrotation Yrotation
            End Site
            {
              OFFSET 0 18.4281 -6.07732
            }
          }
        }
        JOINT RightShoulder
        {
          OFFSET -4.1327 10.5992 -0.575451
          CHANNELS 3 Zrotation Xrotation Yrotation
          JOINT RightArm
          {
            OFFSET 0 13.9018 0
            CHANNELS 3 Zrotation Xrotation Yrotation
            JOINT RightArmRoll
            {
              OFFSET 0 7.01788 0
              CHANNELS 3 Zrotation Xrotation Yrotation
              JOINT RightForeArm
              {
                OFFSET 0 20.4406 0
                CHANNELS 3 Zrotation Xrotation Yrotation
                JOINT RightForeArmRoll
                {
                  OFFSET 0 7.87515 0
                  CHANNELS 3 Zrotation Xrotation Yrotation
                  JOINT RightHand
                  {
                    OFFSET 0 15.8037 0
                    CHANNELS 3 Zrotation Xrotation Yrotation
                    End Site
                    {
                      OFFSET 0 0 0
                    }
                  }
                }
              }
            }
          }
        }
        JOINT LeftShoulder
        {
          OFFSET 4.1327 10.5992 -0.575451
          CHANNELS 3 Zrotation Xrotation Yrotation
          JOINT LeftArm
          {
            OFFSET 0 13.9018 0
            CHANNELS 3 Zrotation Xrotation Yrotation
            JOINT LeftArmRoll
            {
              OFFSET 0 7.01789 0
              CHANNELS 3 Zrotation Xrotation Yrotation
              JOINT LeftForeArm
              {
                OFFSET 0 20.4406 0
                CHANNELS 3 Zrotation Xrotation Yrotation
                JOINT LeftForeArmRoll
                {
                  OFFSET 0 7.87515 0
                  CHANNELS 3 Zrotation Xrotation Yrotation
                  JOINT LeftHand
                  {
                    OFFSET 0 15.8037 0
                    CHANNELS 3 Zrotation Xrotation Yrotation
                    End Site
                    {
                      OFFSET 0 0 0
                    }
                  }
                }
              }
            }
          }
        }
      }
    }
  }
  JOINT RightUpLeg
  {
    OFFSET -7.06048 -1.2947 -1.0861
    CHANNELS 3 Zrotation Xrotation Yrotation
    JOINT RightUpLegRoll
    {
      OFFSET 0 18.5308 0
      CHANNELS 3 Zrotation Xrotation Yrotation
      JOINT RightLeg
      {
        OFFSET 0 -22.9476 0
        CHANNELS 3 Zrotation Xrotation Yrotation
        JOINT RightLegRoll
        {
          OFFSET 0 23.0226 0
          CHANNELS 3 Zrotation Xrotation Yrotation
          JOINT RightFoot
          {
            OFFSET 0 19.1625 0
            CHANNELS 3 Zrotation Xrotation Yrotation
            JOINT RightToeBase
            {
              OFFSET 0 16.0188 0
              CHANNELS 3 Zrotation Xrotation Yrotation
              End Site
              {
                OFFSET 0.00678979 7.75782 -0.894206
              }
            }
          }
        }
      }
    }
  }
  JOINT LeftUpLeg
  {
    OFFSET 7.06048 -1.2947 -1.0861
    CHANNELS 3 Zrotation Xrotation Yrotation
    JOINT LeftUpLegRoll
    {
      OFFSET 0 18.5309 0
      CHANNELS 3 Zrotation Xrotation Yrotation
      JOINT LeftLeg
      {
        OFFSET 0 22.9475 0
        CHANNELS 3 Zrotation Xrotation Yrotation
        JOINT LeftLegRoll
        {
          OFFSET 0 23.2355 0
          CHANNELS 3 Zrotation Xrotation Yrotation
          JOINT LeftFoot
          {
            OFFSET 0 18.9496 0
            CHANNELS 3 Zrotation Xrotation Yrotation
            JOINT LeftToeBase
            {
              OFFSET 0 16.0188 0
              CHANNELS 3 Zrotation Xrotation Yrotation
              End Site
              {
                OFFSET -0.0304289 7.75782 -0.894206
              }
            }
          }
        }
      }
    }
  }
}
MOTION
Frames: 7
Frame Time: 0.00208333
50.3928 96.5184 1.1436 -0.408758 -3.14117 4.12231 -0.046402 -0.387294 -0.448848 -0.0925534 3.22862 -0.892347 -0.0821098 4.87361 -0.891535 -7.98085 3.91935 -0.574719 3.71922 18.3766 -2.39173 66.5131 -5.38827 -3.78257 97.7635 14.6491 -52.3029 -3.18055e-015 -9.54166e-015 -3.18055e-015 15.0599 88.3686 -21.9296 -9.94161e-006 -1.05198e-005 -3.00269 8.03023 -4.95114 0.6976 -60.3061 -2.43696 1.65393 -105.864 15.338 39.6574 1.67583e-005 -7.88591e-006 -8.34393e-007 -40.2976 79.9003 41.4928 1.98989e-005 -7.96436e-006 2.99999 -8.02954 -4.95103 -0.697567 178.642 3.15287 0.514639 180 7.01516e-015 178.796 -179.384 10.2081 179.218 -3.89014e-006 2.18043e-006 0.025695 -17.8787 66.5949 18.4452 8.13534 25.2327 -3.48725 -170.222 -0.501458 -4.81137 4.5067e-006 -1.99009e-005 -1.14415 -2.6358 -9.06516 0.0176684 1.01185e-006 -4.00627e-006 -0.176703 20.179 69.5457 -20.9169 -8.13649 25.2327 3.48774 
50.3694 96.515 1.16987 -0.408631 -3.14056 4.11227 -0.046044 -0.388155 -0.45 -0.0928678 3.2269 -0.89521 -0.0823793 4.87189 -0.894403 -7.92397 3.86839 -0.552726 3.61367 18.3783 -2.34815 66.4984 -5.39541 -3.78558 97.7584 14.6233 -52.2957 -5.56597e-015 -1.59028e-015 1.90833e-014 14.5062 88.3788 -21.394 -9.94161e-006 -1.05198e-005 -3.00269 8.03023 -4.95114 0.6976 -60.2817 -2.44039 1.65372 -105.843 15.3027 39.7223 1.67583e-005 -7.88591e-006 -8.34393e-007 -40.4076 79.9542 41.6322 1.98989e-005 -7.96436e-006 2.99999 -8.02954 -4.95103 -0.697567 178.658 3.15557 0.507701 180 7.01516e-015 178.796 -179.387 10.2152 179.218 -3.89014e-006 2.18043e-006 0.0257203 -17.8772 66.5929 18.4435 8.13534 25.2327 -3.48725 -170.209 -0.5022 -4.82184 4.5067e-006 -1.99009e-005 -1.14415 -2.63773 -9.07597 0.0170437 1.01185e-006 -4.00627e-006 -0.17671 20.1724 69.5391 -20.9099 -8.13649 25.2327 3.48774 
50.3616 96.5097 1.1769 -0.408982 -3.13974 4.10188 -0.0456656 -0.389084 -0.451134 -0.0932074 3.22505 -0.898076 -0.0826739 4.87004 -0.897275 -7.86817 3.81669 -0.53237 3.51062 18.3814 -2.30656 66.4848 -5.40254 -3.78864 97.7529 14.5992 -52.2911 4.77083e-015 1.35174e-014 -0 13.9385 88.3895 -20.8449 -9.94161e-006 -1.05198e-005 -3.00269 8.03023 -4.95114 0.6976 -60.2561 -2.44406 1.65353 -105.823 15.2667 39.7889 1.67583e-005 -7.88591e-006 -8.34393e-007 -40.5215 80.0092 41.7761 1.98989e-005 -7.96436e-006 2.99999 -8.02954 -4.95103 -0.697567 178.675 3.15825 0.5008 180 7.01516e-015 178.796 -179.391 10.2216 179.217 -3.89014e-006 2.18043e-006 0.0257506 -17.8756 66.5908 18.4418 8.13534 25.2327 -3.48725 -170.195 -0.50284 -4.83288 4.5067e-006 -1.99009e-005 -1.14415 -2.63992 -9.08651 0.0163695 1.01185e-006 -4.00627e-006 -0.176722 20.1657 69.5322 -20.9027 -8.13649 25.2327 3.48774 
50.3398 96.5036 1.20865 -0.409669 -3.13876 4.09125 -0.0452729 -0.390061 -0.452257 -0.0935646 3.2231 -0.900945 -0.0829863 4.86809 -0.900148 -7.81311 3.76447 -0.513166 3.40933 18.3854 -2.26637 66.4719 -5.40966 -3.79172 97.7471 14.5763 -52.2884 2.14687e-014 2.70347e-014 1.90833e-014 13.3587 88.4004 -20.2839 -9.94161e-006 -1.05198e-005 -3.00269 8.03023 -4.95114 0.6976 -60.2296 -2.4479 1.65337 -105.804 15.2302 39.8566 1.67583e-005 -7.88591e-006 -8.34393e-007 -40.6387 80.0649 41.9238 1.98989e-005 -7.96436e-006 2.99999 -8.02954 -4.95103 -0.697567 178.692 3.1609 0.493923 180 7.01516e-015 178.796 -179.394 10.2274 179.217 -3.89014e-006 2.18043e-006 0.0257844 -17.874 66.5886 18.4401 8.13534 25.2327 -3.48725 -170.181 -0.503408 -4.84432 4.5067e-006 -1.99009e-005 -1.14415 -2.6423 -9.09685 0.0156604 1.01185e-006 -4.00627e-006 -0.176735 20.1588 69.5252 -20.8952 -8.13649 25.2327 3.48774 
50.3154 96.5012 1.20914 -0.41055 -3.13769 4.08047 -0.0448719 -0.391065 -0.453372 -0.0939323 3.22109 -0.903815 -0.083309 4.86609 -0.903023 -7.75848 3.71194 -0.494629 3.30906 18.39 -2.22698 66.4594 -5.41677 -3.79483 97.7412 14.5541 -52.2868 3.97569e-015 8.74653e-015 2.22639e-014 12.7679 88.4114 -19.7122 -9.94161e-006 -1.05198e-005 -3.00269 8.03023 -4.95114 0.6976 -60.2026 -2.45184 1.65321 -105.784 15.1933 39.9251 1.67583e-005 -7.88591e-006 -8.34393e-007 -40.7585 80.1211 42.0745 1.98989e-005 -7.96436e-006 2.99999 -8.02954 -4.95103 -0.697567 178.71 3.16355 0.487061 180 7.01516e-015 178.796 -179.398 10.2329 179.217 -3.89014e-006 2.18043e-006 0.0258204 -17.8724 66.5865 18.4383 8.13534 25.2327 -3.48725 -170.166 -0.503934 -4.856 4.5067e-006 -1.99009e-005 -1.14415 -2.64478 -9.10709 0.0149312 1.01185e-006 -4.00627e-006 -0.176751 20.1518 69.5181 -20.8877 -8.13649 25.2327 3.48774 
50.2857 96.4936 1.23331 -0.411483 -3.1366 4.06965 -0.0444687 -0.392077 -0.454485 -0.0943028 3.21907 -0.906685 -0.0836346 4.86407 -0.905898 -7.70393 3.65933 -0.476277 3.20906 18.3947 -2.1878 66.4471 -5.42388 -3.79795 97.7353 14.5321 -52.2854 4.77083e-015 4.77083e-015 1.59028e-014 12.1686 88.4223 -19.132 -9.94161e-006 -1.05198e-005 -3.00269 8.03023 -4.95114 0.6976 -60.1754 -2.4558 1.65306 -105.764 15.1564 39.9937 1.67583e-005 -7.88591e-006 -8.34393e-007 -40.8804 80.1773 42.2273 1.98989e-005 -7.96436e-006 2.99999 -8.02954 -4.95103 -0.697567 178.727 3.16619 0.480203 180 7.01516e-015 178.796 -179.403 10.2384 179.217 -3.89014e-006 2.18043e-006 0.0258569 -17.8708 66.5843 18.4365 8.13534 25.2327 -3.48725 -170.152 -0.504449 -4.86774 4.5067e-006 -1.99009e-005 -1.14415 -2.64728 -9.11729 0.0141964 1.01185e-006 -4.00627e-006 -0.176767 20.1447 69.5109 -20.8802 -8.13649 25.2327 3.48774 
50.2731 96.4895 1.23223 -0.412327 -3.13555 4.0589 -0.0440693 -0.393076 -0.455601 -0.094669 3.21708 -0.909555 -0.0839559 4.86207 -0.908772 -7.64914 3.60686 -0.457623 3.10858 18.3991 -2.14826 66.4345 -5.431 -3.80105 97.7294 14.5098 -52.2836 7.95139e-016 7.95139e-016 9.54166e-015 11.5627 88.4329 -18.5451 -9.94161e-006 -1.05198e-005 -3.00269 8.03023 -4.95114 0.6976 -60.1485 -2.45972 1.6529 -105.744 15.1197 40.0621 1.67583e-005 -7.88591e-006 -8.34393e-007 -41.0036 80.2333 42.3812 1.98989e-005 -7.96436e-006 2.99999 -8.02954 -4.95103 -0.697567 178.744 3.16884 0.473339 180 7.01516e-015 178.796 -179.407 10.2439 179.216 -3.89014e-006 2.18043e-006 0.0258924 -17.8691 66.5821 18.4348 8.13534 25.2327 -3.48725 -170.137 -0.504982 -4.87938 4.5067e-006 -1.99009e-005 -1.14415 -2.64975 -9.12754 0.0134707 1.01185e-006 -4.00627e-006 -0.176782 20.1378 69.5038 -20.8727 -8.13649 25.2327 3.48774 
